<?xml version="1.0" encoding="UTF-8" standalone="no"?>
<svg
   xmlns:dc="http://purl.org/dc/elements/1.1/"
   xmlns:cc="http://creativecommons.org/ns#"
   xmlns:rdf="http://www.w3.org/1999/02/22-rdf-syntax-ns#"
   xmlns:svg="http://www.w3.org/2000/svg"
   xmlns="http://www.w3.org/2000/svg"
   id="svg8"
   version="1.1"
   viewBox="0 0 168.40598 52.323997"
   height="52.323997mm"
   width="168.40598mm">
  <defs
     id="defs2" />
  <metadata
     id="metadata5">
    <rdf:RDF>
      <cc:Work
         rdf:about="">
        <dc:format>image/svg+xml</dc:format>
        <dc:type
           rdf:resource="http://purl.org/dc/dcmitype/StillImage" />
        <dc:title></dc:title>
      </cc:Work>
    </rdf:RDF>
  </metadata>
  <g
     transform="translate(-17.68936,-48.866362)"
     id="layer1">
    <path
       id="path875"
       transform="matrix(0.26458333,0,0,0.26458333,17.68936,48.866362)"
       d="m 177.65234,62.400391 a 91.199996,91.199996 0 0 1 4.74805,28.798828 91.199996,91.199996 0 0 1 -3.06641,23.250001 v 31.08594 l 22.27149,12.86523 h 19.39258 V 141.69531 H 197.95703 V 79.103516 h 23.04102 V 62.400391 h -23.04102 v -26.88086 l -18.62305,10.751953 v 16.128907 z"
       style="fill:#ff7f50;fill-opacity:1;stroke-width:0.54851943" />
    <g
       id="g881">
      <path
         id="path38"
         transform="matrix(0.26458333,0,0,0.26458333,17.68936,48.866362)"
         style="fill:#fffaf0;fill-opacity:1;stroke-width:0.54851943"
         d="m 69.792969,23.039062 h 44.734371 l 22.27344,12.865235 V 55.679688 H 117.59961 V 40.320312 H 66.720703 v 40.703126 h 47.806637 l 22.27344,12.865234 v 52.607418 l -22.27344,12.86329 H 67.871094 L 45.599609,146.49609 V 126.7207 h 19.201172 v 15.35938 H 117.59961 V 100.22461 H 69.792969 L 47.519531,87.359375 V 35.904297 Z M 91.199219,0 A 91.199996,91.199996 0 0 0 0,91.199219 91.199996,91.199996 0 0 0 91.199219,182.40039 91.199996,91.199996 0 0 0 179.33398,114.44922 V 79.103516 H 161.66992 V 62.400391 h 15.98242 A 91.199996,91.199996 0 0 0 91.199219,0 Z" />
    </g>
  </g>
  <g
     transform="translate(-17.68936,-48.866362)"
     id="layer2">
    <path
       d="m 88.160865,65.376362 v 25.399999 h -4.9276 V 65.376362 Z m -5.1816,-6.2484 v -5.4356 h 5.4356 v 5.4356 z"
       style="font-style:normal;font-variant:normal;font-weight:normal;font-stretch:normal;font-size:50.79999924px;line-height:1.25;font-family:Quantico;-inkscape-font-specification:'Quantico, Normal';font-variant-ligatures:normal;font-variant-caps:normal;font-variant-numeric:normal;font-feature-settings:normal;text-align:start;letter-spacing:0px;word-spacing:0px;writing-mode:lr-tb;text-anchor:start;fill:#ff7f50;fill-opacity:1;stroke:none;stroke-width:0.26458332"
       id="path18" />
    <path
       d="m 110.50335,69.795962 h -9.24561 V 90.776361 H 96.330143 V 65.376362 h 3.708397 l 1.2192,2.0828 3.60681,-2.0828 h 5.6388 z"
       style="font-style:normal;font-variant:normal;font-weight:normal;font-stretch:normal;font-size:50.79999924px;line-height:1.25;font-family:Quantico;-inkscape-font-specification:'Quantico, Normal';font-variant-ligatures:normal;font-variant-caps:normal;font-variant-numeric:normal;font-feature-settings:normal;text-align:start;letter-spacing:0px;word-spacing:0px;writing-mode:lr-tb;text-anchor:start;fill:#ff7f50;fill-opacity:1;stroke:none;stroke-width:0.26458332"
       id="path20" />
    <path
       d="m 130.24788,69.795962 h -9.2456 v 20.980399 h -4.9276 V 65.376362 h 3.7084 l 1.2192,2.0828 3.6068,-2.0828 h 5.6388 z"
       style="font-style:normal;font-variant:normal;font-weight:normal;font-stretch:normal;font-size:50.79999924px;line-height:1.25;font-family:Quantico;-inkscape-font-specification:'Quantico, Normal';font-variant-ligatures:normal;font-variant-caps:normal;font-variant-numeric:normal;font-feature-settings:normal;text-align:start;letter-spacing:0px;word-spacing:0px;writing-mode:lr-tb;text-anchor:start;fill:#ff7f50;fill-opacity:1;stroke:none;stroke-width:0.26458332"
       id="path22" />
    <path
       d="m 155.88521,86.356761 v 4.4196 h -14.1732 l -5.8928,-3.4036 V 68.525962 l 5.8928,-3.4036 h 8.2804 l 5.8928,3.4036 v 11.277599 h -15.1384 v 6.5532 z m -15.1384,-16.814799 v 5.842 h 10.2108 v -5.842 z"
       style="font-style:normal;font-variant:normal;font-weight:normal;font-stretch:normal;font-size:50.79999924px;line-height:1.25;font-family:Quantico;-inkscape-font-specification:'Quantico, Normal';font-variant-ligatures:normal;font-variant-caps:normal;font-variant-numeric:normal;font-feature-settings:normal;text-align:start;letter-spacing:0px;word-spacing:0px;writing-mode:lr-tb;text-anchor:start;fill:#ff7f50;fill-opacity:1;stroke:none;stroke-width:0.26458332"
       id="path24" />
    <path
       d="m 168.92493,90.776361 -4.9276,-2.8448 v -4.572 l 3.6068,-2.0828 -3.6068,-2.0828 V 68.779962 l 5.8928,-3.4036 h 16.2052 v 1.7272 l -4.6228,2.6924 3.0988,1.8288 v 7.010399 l -5.8928,3.4036 h -9.7536 v 4.318 h 11.2776 l 5.8928,3.4036 v 8.0264 l -5.8928,3.403599 h -11.3284 l -5.8928,-3.403599 v -3.1496 l 4.9276,-2.8448 v 5.08 h 13.2588 v -6.096 z m 0,-21.081999 v 8.026399 h 10.7188 v -8.026399 z"
       style="font-style:normal;font-variant:normal;font-weight:normal;font-stretch:normal;font-size:50.79999924px;line-height:1.25;font-family:Quantico;-inkscape-font-specification:'Quantico, Normal';font-variant-ligatures:normal;font-variant-caps:normal;font-variant-numeric:normal;font-feature-settings:normal;text-align:start;letter-spacing:0px;word-spacing:0px;writing-mode:lr-tb;text-anchor:start;fill:#ff7f50;fill-opacity:1;stroke:none;stroke-width:0.26458332"
       id="path26" />
  </g>
</svg>
