<?xml version="1.0" standalone="no"?>
<!DOCTYPE svg PUBLIC "-//W3C//DTD SVG 20010904//EN"
 "http://www.w3.org/TR/2001/REC-SVG-20010904/DTD/svg10.dtd">
<svg version="1.0" xmlns="http://www.w3.org/2000/svg"
 width="512.000000pt" height="512.000000pt" viewBox="0 0 512.000000 512.000000"
 preserveAspectRatio="xMidYMid meet">
<metadata>
Created by potrace 1.11, written by Peter Selinger 2001-2013
</metadata>
<g transform="translate(0.000000,512.000000) scale(0.100000,-0.100000)"
fill="#000000" stroke="none">
<path d="M2379 5116 c-2 -2 -38 -6 -79 -10 -64 -6 -213 -30 -315 -51 -201 -42
-477 -149 -682 -265 -293 -166 -508 -351 -760 -653 -44 -53 -170 -244 -219
-332 -171 -308 -276 -639 -312 -985 -9 -87 -9 -416 0 -510 75 -782 527 -1509
1197 -1924 279 -172 588 -289 926 -350 17 -3 57 -9 90 -12 33 -4 64 -9 70 -12
20 -12 433 -9 539 4 352 43 584 113 881 264 287 145 506 311 730 552 234 252
414 555 535 903 l53 150 1 508 1 507 -247 0 -248 0 -1 60 c0 33 0 89 0 125 0
36 0 115 0 175 l1 110 220 0 c159 0 220 3 220 12 0 24 -95 249 -152 358 -287
551 -769 983 -1344 1206 -144 55 -332 109 -449 129 -16 3 -39 7 -51 9 -12 2
-45 7 -74 11 -29 4 -62 9 -74 12 -24 5 -452 14 -457 9z m921 -692 c47 -27 94
-54 105 -61 11 -7 27 -16 35 -20 8 -4 49 -27 90 -51 41 -25 95 -56 120 -70 25
-14 77 -44 115 -67 l70 -41 0 -279 0 -278 -240 0 c-132 1 -252 2 -267 2 l-28
1 0 214 0 215 -713 0 -714 1 0 -570 c0 -414 3 -570 11 -571 6 -1 308 -2 672
-3 l660 -1 164 -95 c90 -52 191 -111 225 -130 34 -19 101 -57 148 -85 l87 -50
0 -740 -1 -740 -312 -179 -312 -180 -655 1 -655 0 -310 179 -310 179 0 279 0
279 245 0 c135 -1 255 -2 268 -2 l22 -1 0 -215 0 -215 740 1 740 0 0 588 0
587 -672 1 -673 0 -310 181 -310 180 -1 716 c0 394 2 720 5 725 4 5 92 59 196
119 105 60 241 139 303 175 61 36 120 67 129 69 9 2 294 3 632 2 l616 0 85
-50z"/>
</g>
</svg>
